<svg id="Layer_1" data-name="Layer 1" xmlns="http://www.w3.org/2000/svg" viewBox="0 0 222.3 208.7"><defs><style>.cls-1{fill:#6c8ba0;}.cls-2{fill:#e2e6e8;}</style></defs><path class="cls-1" d="M39.2,32.5a101.7,101.7,0,1,0,143.9,0A101.7,101.7,0,0,0,39.2,32.5ZM172.3,66l-38.4,38.4,38.4,38.3-22.8,22.8-38.3-38.4L72.8,165.5,50,142.7l38.4-38.3L50,66,72.8,43.3l38.4,38.3,38.3-38.3Z"/><polygon class="cls-2" points="149.5 43.3 111.2 81.6 72.8 43.3 50 66 88.4 104.4 50 142.7 72.8 165.5 111.2 127.1 149.5 165.5 172.3 142.7 133.9 104.4 172.3 66 149.5 43.3"/></svg>